<svg width="23" height="19" viewBox="0 0 23 19" fill="none" xmlns="http://www.w3.org/2000/svg">
<path fill-rule="evenodd" clip-rule="evenodd" d="M19.3516 9.15275C20.1918 8.29599 20.6586 7.13926 20.6492 5.93701C20.6398 4.73477 20.1551 3.5855 19.3017 2.74203C18.8791 2.32439 18.3787 1.99439 17.8291 1.77088C17.2795 1.54737 16.6914 1.43472 16.0984 1.43938C14.9008 1.44877 13.756 1.93537 12.9158 2.79213C12.6877 3.02117 12.3977 3.3023 12.046 3.63552L11.068 4.56003L10.09 3.63552C9.73752 3.30151 9.44718 3.02038 9.21902 2.79213C8.3722 1.94202 7.22367 1.46443 6.02608 1.46443C4.8285 1.46443 3.67996 1.94202 2.83314 2.79213C1.08872 4.54452 1.06852 7.37769 2.76897 9.13844L11.068 17.4697L19.3516 9.15275ZM1.82428 1.78054C2.37601 1.22651 3.03106 0.787026 3.75202 0.487179C4.47297 0.187333 5.2457 0.0330028 6.02608 0.0330028C6.80646 0.0330028 7.57919 0.187333 8.30014 0.487179C9.0211 0.787026 9.67615 1.22651 10.2279 1.78054C10.4442 1.99845 10.7242 2.26964 11.068 2.59411C11.4102 2.26964 11.6903 1.99805 11.9081 1.77935C13.0139 0.652243 14.5203 0.0122548 16.0961 0.000174164C17.6718 -0.0119064 19.1878 0.60491 20.3105 1.71493C21.4333 2.82495 22.0708 4.33725 22.0828 5.91914C22.0949 7.50102 21.4804 9.02292 20.3747 10.15L11.9081 18.6507C11.6853 18.8744 11.3831 19 11.068 19C10.7529 19 10.4507 18.8744 10.2279 18.6507L1.75892 10.1488C0.672869 9.02439 0.0709622 7.51623 0.0831906 5.95005C0.0954189 4.38387 0.720801 2.88537 1.82428 1.77816V1.78054Z" fill="black"/>
</svg>
