<svg width="195" height="58" viewBox="0 0 195 58" fill="none" xmlns="http://www.w3.org/2000/svg">
<path d="M48.5556 14.5057C48.2999 14.5096 47.6835 14.4825 46.7963 15.2176C46.4016 15.5465 45.631 16.8079 45.8528 17.8603C45.9242 18.2047 46.1084 18.4755 46.2362 18.6497C46.6084 19.1527 47.3564 19.4661 47.6947 19.1681C48.097 18.8083 48.8412 18.8586 49.1382 18.6729C49.3675 18.5374 49.9652 18.135 50.2847 17.2567C50.4163 16.893 51.2169 14.4399 48.5556 14.5057Z" fill="#7F004E"/>
<path d="M52.9005 31.9754C51.5623 30.2846 47.2545 31.5266 46.0892 31.7742C46.2997 30.7373 48.5513 23.2658 48.6265 22.4648C48.6754 21.9309 48.6754 21.3118 47.9612 20.9481C46.5215 20.1897 44.5518 21.3698 43.8037 21.9696C42.8827 22.7047 43.4804 22.0392 40.9957 24.3685C37.9509 27.2317 36.8307 28.5511 36.6916 28.5047C36.3796 28.4544 38.1201 24.4536 38.387 23.3934C38.5674 22.697 38.7403 22.2327 38.5599 21.6407C38.387 21.0758 37.9472 20.596 37.1126 20.5031C36.1691 20.3986 34.9061 20.8552 33.286 21.5865C30.9779 22.6351 26.3957 25.2623 24.3357 26.6359C13.6225 33.8056 12.8369 35.183 12.5475 35.8601C12.2994 36.4483 12.3858 37.0596 12.6527 37.2531C12.9948 37.5046 13.4722 37.6787 14.2691 37.048C15.3291 36.2084 15.7577 35.1637 17.9492 33.1362C22.3735 29.0696 26.7114 26.6746 28.4556 25.6183C30.7486 24.2292 33.3085 23.1613 34.5866 22.7008C34.6204 22.7008 32.5492 28.5279 32.1959 29.6113C31.3576 32.2269 31.3764 33.1401 31.8726 33.7243C32.5266 34.4943 33.6619 34.2622 34.5264 33.6199C35.0189 33.2329 36.2443 31.693 36.8307 31.0507C37.4134 30.4045 38.3644 29.4565 39.1839 28.5511C39.9996 27.6457 41.3754 26.3418 42.1911 25.6376C42.8865 25.0417 43.4654 24.5697 43.6233 24.6432C43.8638 24.7632 43.503 25.5563 43.503 25.5563C43.503 25.5563 42.4429 28.8375 42.0783 30.0872C41.9204 30.6251 41.6535 31.6852 41.3641 32.8692C34.8121 34.5291 28.0684 36.2974 24.7229 37.5317C18.0243 40.0119 13.6526 41.5402 14.1714 43.0028C14.7465 44.6317 17.2838 41.962 25.6364 38.8163C29.6284 37.3189 30.7561 37.0171 32.9815 36.4405C36.0113 35.6512 38.5561 35.1173 40.992 34.6762C40.8754 35.3185 40.8454 36.1658 40.9393 36.6727C41.1686 37.9225 41.9618 38.263 42.5858 38.3984C43.5631 38.6073 45.0855 38.3752 45.2923 36.162C45.3524 35.5197 45.5103 34.5407 45.5592 34.3008C45.7659 34.2544 46.1944 34.1886 46.4764 34.1577C49.3182 33.8714 49.3445 34.2002 49.6452 34.4285C49.9422 34.6452 50.1828 35.775 52.0059 34.9818C53.6448 34.266 53.4005 32.5713 52.9118 31.9638" fill="#7F004E"/>
<path d="M92.1414 25.7517L91.6565 28.2125H96.235L95.9982 29.412H91.4197L90.9348 31.8728H95.5208L95.2764 33.0723H90.7017L90.2168 35.5293H94.7915C99.167 35.5293 99.6482 34.175 100.344 30.6385C100.772 28.4834 101.31 25.7478 97.389 25.7478H92.1452L92.1414 25.7517Z" fill="#7F004E"/>
<path d="M71.8239 22.4668L68.8317 29.6172H68.7415L68.5047 22.4668H60.8551L58.2764 35.5332H62.8661L64.8998 25.2681H65.0276L65.426 35.5332H69.4632L73.9966 25.2681H74.1094L72.0795 35.5332H76.658L79.2367 22.4668H71.8239Z" fill="#7F004E"/>
<path d="M86.0931 25.7517L84.6497 33.0723H83.1874L84.6309 25.7517H80.0449L78.9209 31.455C78.3947 33.8423 79.1916 35.5293 82.6987 35.5293H88.7432L90.6679 25.7517H86.0894H86.0931Z" fill="#7F004E"/>
<path d="M107.143 25.7595C103.896 25.7595 102.302 27.0866 101.843 29.4198L100.633 35.5332H105.215L106.64 28.3132H108.106L106.666 35.5332H111.263L113.192 25.7556H107.143V25.7595Z" fill="#7F004E"/>
<path d="M120.21 28.9052H118.62L119.24 25.7556H114.658L112.729 35.5332H118.041C121.544 35.5332 123.548 34.5388 123.995 32.2985C124.443 30.0079 122.676 28.9439 120.214 28.9052M117.793 33.0762L118.146 31.3002H119.609L119.259 33.0762H117.793Z" fill="#7F004E"/>
</svg>
