<svg width="42" height="30" viewBox="0 0 42 30" fill="none" xmlns="http://www.w3.org/2000/svg">
<path d="M36.5548 0.505693C36.2992 0.509562 35.6827 0.482478 34.7956 1.21763C34.4009 1.54652 33.6303 2.8079 33.8521 3.86033C33.9235 4.20469 34.1077 4.47554 34.2355 4.64966C34.6077 5.15266 35.3557 5.46607 35.694 5.16814C36.0962 4.8083 36.8405 4.8586 37.1375 4.67287C37.3668 4.53745 37.9645 4.13505 38.284 3.25673C38.4155 2.89302 39.2162 0.439916 36.5548 0.505693Z" fill="white"/>
<path d="M40.9002 17.9754C39.562 16.2846 35.2541 17.5266 34.0888 17.7742C34.2993 16.7373 36.551 9.26575 36.6262 8.46482C36.675 7.93086 36.675 7.31178 35.9608 6.94807C34.5211 6.1897 32.5514 7.36982 31.8033 7.96956C30.8824 8.70471 31.4801 8.0392 28.9954 10.3685C25.9505 13.2317 24.8304 14.5511 24.6913 14.5047C24.3793 14.4544 26.1197 10.4536 26.3866 9.39344C26.567 8.69697 26.7399 8.23266 26.5595 7.64067C26.3866 7.07576 25.9468 6.59597 25.1123 6.50311C24.1688 6.39864 22.9057 6.85521 21.2856 7.5865C18.9776 8.63507 14.3953 11.2623 12.3354 12.6359C1.62217 19.8056 0.836534 21.183 0.547089 21.8601C0.298994 22.4483 0.385451 23.0596 0.652342 23.2531C0.994412 23.5046 1.47181 23.6787 2.26872 23.048C3.32876 22.2084 3.75729 21.1637 5.9488 19.1362C10.3732 15.0696 14.7111 12.6746 16.4553 11.6183C18.7483 10.2292 21.3082 9.16128 22.5862 8.70084C22.6201 8.70084 20.5488 14.5279 20.1955 15.6113C19.3572 18.2269 19.376 19.1401 19.8722 19.7243C20.5263 20.4943 21.6615 20.2622 22.5261 19.6199C23.0185 19.2329 24.2439 17.693 24.8304 17.0507C25.413 16.4045 26.364 15.4565 27.1835 14.5511C27.9992 13.6457 29.375 12.3418 30.1907 11.6376C30.8861 11.0417 31.465 10.5697 31.6229 10.6432C31.8635 10.7632 31.5026 11.5563 31.5026 11.5563C31.5026 11.5563 30.4426 14.8375 30.0779 16.0872C29.9201 16.6251 29.6532 17.6852 29.3637 18.8692C22.8118 20.5291 16.0681 22.2974 12.7226 23.5317C6.02398 26.0119 1.65224 27.5402 2.17099 29.0028C2.74612 30.6317 5.28345 27.962 13.636 24.8163C17.6281 23.3189 18.7558 23.0171 20.9811 22.4405C24.0109 21.6512 26.5557 21.1173 28.9916 20.6762C28.8751 21.3185 28.845 22.1658 28.939 22.6727C29.1683 23.9225 29.9614 24.263 30.5854 24.3984C31.5628 24.6073 33.0852 24.3752 33.2919 22.162C33.3521 21.5197 33.5099 20.5407 33.5588 20.3008C33.7655 20.2544 34.1941 20.1886 34.476 20.1577C37.3178 19.8714 37.3441 20.2002 37.6449 20.4285C37.9418 20.6452 38.1824 21.775 40.0055 20.9818C41.6445 20.266 41.4001 18.5713 40.9114 17.9638" fill="white"/>
</svg>
