<svg width="67" height="14" viewBox="0 0 67 14" fill="none" xmlns="http://www.w3.org/2000/svg">
<path d="M34.1415 3.75167L33.6566 6.21251H38.2351L37.9983 7.41198H33.4198L32.9349 9.87282H37.5209L37.2766 11.0723H32.7018L32.2169 13.5293H36.7916C41.1671 13.5293 41.6483 12.175 42.3437 8.63853C42.7722 6.48336 43.3098 3.7478 39.3891 3.7478H34.1453L34.1415 3.75167Z" fill="white"/>
<path d="M13.824 0.466797L10.8318 7.61716H10.7416L10.5048 0.466797H2.85518L0.276489 13.5332H4.86625L6.89988 3.26813H7.02769L7.42615 13.5332H11.4633L15.9967 3.26813H16.1095L14.0796 13.5332H18.6581L21.2368 0.466797H13.824Z" fill="white"/>
<path d="M28.0933 3.75171L26.6498 11.0723H25.1875L26.631 3.75171H22.045L20.9211 9.45498C20.3948 11.8423 21.1917 13.5293 24.6989 13.5293H30.7434L32.668 3.75171H28.0895H28.0933Z" fill="white"/>
<path d="M49.1438 3.75948C45.896 3.75948 44.3022 5.08664 43.8436 7.41979L42.6332 13.5332H47.2154L48.6401 6.31319H50.1061L48.6664 13.5332H53.2637L55.1921 3.75562H49.1438V3.75948Z" fill="white"/>
<path d="M62.2101 6.90518H60.62L61.2402 3.75562H56.658L54.7296 13.5332H60.0411C63.5445 13.5332 65.5481 12.5388 65.9954 10.2985C66.4427 8.00792 64.676 6.94387 62.2138 6.90518M59.793 11.0762L60.1464 9.30024H61.6086L61.259 11.0762H59.793Z" fill="white"/>
</svg>
