<svg width="16" height="22" viewBox="0 0 16 22" fill="none" xmlns="http://www.w3.org/2000/svg">
<path d="M8 15C11.866 15 15 11.866 15 8C15 4.13401 11.866 1 8 1C4.13401 1 1 4.13401 1 8C1 11.866 4.13401 15 8 15Z" stroke="#BBBBBB" stroke-width="1.5"/>
<path d="M3.35086 14L2.71386 16.323C2.08586 18.615 1.77186 19.761 2.19086 20.388C2.33786 20.608 2.53486 20.784 2.76386 20.901C3.41586 21.233 4.42386 20.708 6.43886 19.658C7.10886 19.308 7.44486 19.134 7.80086 19.096C7.93319 19.0828 8.06652 19.0828 8.19886 19.096C8.55486 19.134 8.88986 19.309 9.56086 19.658C11.5759 20.708 12.5839 21.233 13.2359 20.901C13.4649 20.784 13.6619 20.608 13.8089 20.388C14.2289 19.761 13.9139 18.615 13.2859 16.323L12.6489 14" stroke="#BBBBBB" stroke-width="1.5" stroke-linecap="round"/>
</svg>
