<svg width="18" height="19" viewBox="0 0 18 19" fill="none" xmlns="http://www.w3.org/2000/svg">
<path d="M14.0394 9.46096C14.137 10.4877 14.7125 11.3467 15.991 13.2548C16.1298 13.4619 16.2769 13.6814 16.4326 13.9149C16.8065 14.4757 16.6351 15.6542 15.563 15.6542H2.04953C0.977423 15.6542 0.806022 14.4757 1.17995 13.9149C1.33562 13.6814 1.48272 13.4619 1.62153 13.2548C3.03393 11.1469 3.58835 10.3195 3.58835 9.13168C3.58835 7.02626 3.58835 3.5051 6.33026 2.22412" stroke="white" stroke-width="1.4" stroke-linecap="round"/>
<path d="M6.21777 15.6543C6.21777 17.0952 7.38587 18.2633 8.8268 18.2633C10.2677 18.2633 11.4358 17.0952 11.4358 15.6543" stroke="white" stroke-width="1.4"/>
<circle cx="12.3058" cy="3.4787" r="3.4787" fill="white"/>
</svg>
